<mxfile host="app.diagrams.net" agent="Mozilla/5.0 (Windows NT 10.0; Win64; x64) AppleWebKit/537.36 (KHTML, like Gecko) Chrome/129.0.0.0 Safari/537.36" version="24.7.17">
  <diagram name="Página-1" id="UzFf48-_ixGEj29PiuRg">
    <mxGraphModel dx="1365" dy="1683" grid="1" gridSize="10" guides="1" tooltips="1" connect="1" arrows="1" fold="1" page="1" pageScale="1" pageWidth="1169" pageHeight="827" math="0" shadow="0">
      <root>
        <mxCell id="0" />
        <mxCell id="1" parent="0" />
        <mxCell id="uUVCNQHS8sP5bxzguqOR-2" value="Área técnica" style="shape=umlActor;verticalLabelPosition=bottom;verticalAlign=top;html=1;outlineConnect=0;" parent="1" vertex="1">
          <mxGeometry x="620" y="330" width="30" height="60" as="geometry" />
        </mxCell>
        <mxCell id="uUVCNQHS8sP5bxzguqOR-4" value="Usuario" style="shape=umlActor;verticalLabelPosition=bottom;verticalAlign=top;html=1;outlineConnect=0;" parent="1" vertex="1">
          <mxGeometry x="50" y="443" width="30" height="60" as="geometry" />
        </mxCell>
        <mxCell id="uUVCNQHS8sP5bxzguqOR-5" value="espacxio físico" style="shape=umlActor;verticalLabelPosition=bottom;verticalAlign=top;html=1;outlineConnect=0;" parent="1" vertex="1">
          <mxGeometry x="700" y="15" width="30" height="60" as="geometry" />
        </mxCell>
        <mxCell id="uUVCNQHS8sP5bxzguqOR-6" value="Área de difusión" style="shape=umlActor;verticalLabelPosition=bottom;verticalAlign=top;html=1;outlineConnect=0;" parent="1" vertex="1">
          <mxGeometry x="540" y="360" width="30" height="60" as="geometry" />
        </mxCell>
        <mxCell id="uUVCNQHS8sP5bxzguqOR-7" value="Área de diseño" style="shape=umlActor;verticalLabelPosition=bottom;verticalAlign=top;html=1;outlineConnect=0;" parent="1" vertex="1">
          <mxGeometry x="590" y="218" width="30" height="60" as="geometry" />
        </mxCell>
        <mxCell id="uUVCNQHS8sP5bxzguqOR-8" value="Seremonial y protocolo" style="shape=umlActor;verticalLabelPosition=bottom;verticalAlign=top;html=1;outlineConnect=0;" parent="1" vertex="1">
          <mxGeometry x="585" y="130" width="30" height="60" as="geometry" />
        </mxCell>
        <mxCell id="uUVCNQHS8sP5bxzguqOR-9" value="Realiza evento" style="ellipse;whiteSpace=wrap;html=1;" parent="1" vertex="1">
          <mxGeometry x="30" y="300" width="120" height="80" as="geometry" />
        </mxCell>
        <mxCell id="uUVCNQHS8sP5bxzguqOR-19" value="" style="endArrow=none;html=1;rounded=0;" parent="1" source="uUVCNQHS8sP5bxzguqOR-9" target="uUVCNQHS8sP5bxzguqOR-4" edge="1">
          <mxGeometry width="50" height="50" relative="1" as="geometry">
            <mxPoint x="220" y="230" as="sourcePoint" />
            <mxPoint x="210" y="90" as="targetPoint" />
          </mxGeometry>
        </mxCell>
        <mxCell id="uUVCNQHS8sP5bxzguqOR-20" value="Se identifica" style="ellipse;whiteSpace=wrap;html=1;" parent="1" vertex="1">
          <mxGeometry x="20" y="30" width="120" height="80" as="geometry" />
        </mxCell>
        <mxCell id="uUVCNQHS8sP5bxzguqOR-21" value="extend" style="endArrow=open;endSize=12;dashed=1;html=1;rounded=0;" parent="1" source="uUVCNQHS8sP5bxzguqOR-22" target="uUVCNQHS8sP5bxzguqOR-20" edge="1">
          <mxGeometry width="160" relative="1" as="geometry">
            <mxPoint x="560" y="-90" as="sourcePoint" />
            <mxPoint x="680" y="-90" as="targetPoint" />
          </mxGeometry>
        </mxCell>
        <mxCell id="uUVCNQHS8sP5bxzguqOR-22" value="Pide contraseña" style="ellipse;whiteSpace=wrap;html=1;" parent="1" vertex="1">
          <mxGeometry x="220" y="10" width="140" height="70" as="geometry" />
        </mxCell>
        <mxCell id="uUVCNQHS8sP5bxzguqOR-23" value="" style="endArrow=open;endFill=1;endSize=12;html=1;rounded=0;" parent="1" edge="1">
          <mxGeometry width="160" relative="1" as="geometry">
            <mxPoint x="1400" y="-130.43" as="sourcePoint" />
            <mxPoint x="1560" y="-130.43" as="targetPoint" />
          </mxGeometry>
        </mxCell>
        <mxCell id="uUVCNQHS8sP5bxzguqOR-24" value="" style="endArrow=none;html=1;rounded=0;entryX=0.57;entryY=0.992;entryDx=0;entryDy=0;entryPerimeter=0;" parent="1" source="uUVCNQHS8sP5bxzguqOR-45" target="uUVCNQHS8sP5bxzguqOR-20" edge="1">
          <mxGeometry width="50" height="50" relative="1" as="geometry">
            <mxPoint x="220" y="60" as="sourcePoint" />
            <mxPoint x="700" y="80" as="targetPoint" />
            <Array as="points" />
          </mxGeometry>
        </mxCell>
        <mxCell id="uUVCNQHS8sP5bxzguqOR-25" value="Solicita espacio" style="ellipse;whiteSpace=wrap;html=1;" parent="1" vertex="1">
          <mxGeometry x="390" y="80" width="140" height="70" as="geometry" />
        </mxCell>
        <mxCell id="uUVCNQHS8sP5bxzguqOR-26" value="enviar mensajes" style="ellipse;whiteSpace=wrap;html=1;" parent="1" vertex="1">
          <mxGeometry x="290" y="310" width="140" height="70" as="geometry" />
        </mxCell>
        <mxCell id="uUVCNQHS8sP5bxzguqOR-27" value="" style="endArrow=none;html=1;rounded=0;entryX=0.5;entryY=0;entryDx=0;entryDy=0;" parent="1" edge="1">
          <mxGeometry width="50" height="50" relative="1" as="geometry">
            <mxPoint x="1669.9993548387097" y="15" as="sourcePoint" />
            <mxPoint x="1692.58" y="295.0000000000002" as="targetPoint" />
            <Array as="points" />
          </mxGeometry>
        </mxCell>
        <mxCell id="uUVCNQHS8sP5bxzguqOR-28" value="" style="endArrow=none;html=1;rounded=0;entryX=0;entryY=0.5;entryDx=0;entryDy=0;" parent="1" edge="1">
          <mxGeometry width="50" height="50" relative="1" as="geometry">
            <mxPoint x="1570" y="146.08695652173918" as="sourcePoint" />
            <mxPoint x="1669.999999999998" y="219.99999999999997" as="targetPoint" />
            <Array as="points" />
          </mxGeometry>
        </mxCell>
        <mxCell id="uUVCNQHS8sP5bxzguqOR-32" value="" style="endArrow=none;html=1;rounded=0;" parent="1" source="uUVCNQHS8sP5bxzguqOR-2" target="uUVCNQHS8sP5bxzguqOR-37" edge="1">
          <mxGeometry width="50" height="50" relative="1" as="geometry">
            <mxPoint x="1060" y="10" as="sourcePoint" />
            <mxPoint x="1228" y="-60" as="targetPoint" />
            <Array as="points" />
          </mxGeometry>
        </mxCell>
        <mxCell id="uUVCNQHS8sP5bxzguqOR-33" value="" style="endArrow=none;html=1;rounded=0;" parent="1" source="uUVCNQHS8sP5bxzguqOR-9" target="uUVCNQHS8sP5bxzguqOR-45" edge="1">
          <mxGeometry width="50" height="50" relative="1" as="geometry">
            <mxPoint x="500" y="-482.00142857142845" as="sourcePoint" />
            <mxPoint x="820" y="-344.85857142857134" as="targetPoint" />
            <Array as="points">
              <mxPoint x="40" y="280" />
              <mxPoint x="40" y="220" />
            </Array>
          </mxGeometry>
        </mxCell>
        <mxCell id="uUVCNQHS8sP5bxzguqOR-34" value="Solicita recursos" style="ellipse;whiteSpace=wrap;html=1;" parent="1" vertex="1">
          <mxGeometry x="860" y="120" width="140" height="70" as="geometry" />
        </mxCell>
        <mxCell id="uUVCNQHS8sP5bxzguqOR-35" value="" style="endArrow=none;html=1;rounded=0;" parent="1" source="uUVCNQHS8sP5bxzguqOR-34" target="uUVCNQHS8sP5bxzguqOR-37" edge="1">
          <mxGeometry width="50" height="50" relative="1" as="geometry">
            <mxPoint x="920" y="-170" as="sourcePoint" />
            <mxPoint x="1090" y="-12" as="targetPoint" />
            <Array as="points" />
          </mxGeometry>
        </mxCell>
        <mxCell id="uUVCNQHS8sP5bxzguqOR-37" value="se identifica" style="ellipse;whiteSpace=wrap;html=1;" parent="1" vertex="1">
          <mxGeometry x="680" y="165" width="140" height="70" as="geometry" />
        </mxCell>
        <mxCell id="uUVCNQHS8sP5bxzguqOR-38" value="Solicita recursos" style="ellipse;whiteSpace=wrap;html=1;" parent="1" vertex="1">
          <mxGeometry x="1390" y="-30" width="140" height="70" as="geometry" />
        </mxCell>
        <mxCell id="uUVCNQHS8sP5bxzguqOR-39" value="" style="endArrow=none;html=1;rounded=0;entryX=0.414;entryY=0.964;entryDx=0;entryDy=0;entryPerimeter=0;" parent="1" edge="1">
          <mxGeometry width="50" height="50" relative="1" as="geometry">
            <mxPoint x="1350" y="-50" as="sourcePoint" />
            <mxPoint x="1587.9600000000005" y="-292.51999999999975" as="targetPoint" />
            <Array as="points" />
          </mxGeometry>
        </mxCell>
        <mxCell id="uUVCNQHS8sP5bxzguqOR-40" value="Pide contraseña" style="ellipse;whiteSpace=wrap;html=1;" parent="1" vertex="1">
          <mxGeometry x="870" y="278" width="140" height="70" as="geometry" />
        </mxCell>
        <mxCell id="uUVCNQHS8sP5bxzguqOR-41" value="" style="endArrow=none;html=1;rounded=0;" parent="1" edge="1">
          <mxGeometry width="50" height="50" relative="1" as="geometry">
            <mxPoint x="1432.5" y="-135" as="sourcePoint" />
            <mxPoint x="1487.5" y="-225" as="targetPoint" />
            <Array as="points" />
          </mxGeometry>
        </mxCell>
        <mxCell id="uUVCNQHS8sP5bxzguqOR-42" value="extend" style="endArrow=open;endSize=12;dashed=1;html=1;rounded=0;" parent="1" source="uUVCNQHS8sP5bxzguqOR-40" target="uUVCNQHS8sP5bxzguqOR-37" edge="1">
          <mxGeometry width="160" relative="1" as="geometry">
            <mxPoint x="965" y="-230" as="sourcePoint" />
            <mxPoint x="980" y="-30" as="targetPoint" />
          </mxGeometry>
        </mxCell>
        <mxCell id="uUVCNQHS8sP5bxzguqOR-43" value="extend" style="endArrow=open;endSize=12;dashed=1;html=1;rounded=0;" parent="1" source="uUVCNQHS8sP5bxzguqOR-44" target="uUVCNQHS8sP5bxzguqOR-34" edge="1">
          <mxGeometry width="160" relative="1" as="geometry">
            <mxPoint x="915" y="-390" as="sourcePoint" />
            <mxPoint x="910" y="-290" as="targetPoint" />
          </mxGeometry>
        </mxCell>
        <mxCell id="uUVCNQHS8sP5bxzguqOR-44" value="Valida recursos" style="ellipse;whiteSpace=wrap;html=1;" parent="1" vertex="1">
          <mxGeometry x="990" y="30" width="140" height="70" as="geometry" />
        </mxCell>
        <mxCell id="uUVCNQHS8sP5bxzguqOR-45" value="Área solicitante" style="shape=umlActor;verticalLabelPosition=bottom;verticalAlign=top;html=1;" parent="1" vertex="1">
          <mxGeometry x="90" y="170" width="30" height="60" as="geometry" />
        </mxCell>
        <mxCell id="uUVCNQHS8sP5bxzguqOR-48" value="" style="line;strokeWidth=1;fillColor=none;align=left;verticalAlign=middle;spacingTop=-1;spacingLeft=3;spacingRight=3;rotatable=0;labelPosition=right;points=[];portConstraint=eastwest;strokeColor=inherit;" parent="1" vertex="1">
          <mxGeometry x="1450" y="120" width="110" height="8" as="geometry" />
        </mxCell>
        <mxCell id="uUVCNQHS8sP5bxzguqOR-49" value="" style="endArrow=none;html=1;rounded=0;" parent="1" source="uUVCNQHS8sP5bxzguqOR-45" target="uUVCNQHS8sP5bxzguqOR-25" edge="1">
          <mxGeometry width="50" height="50" relative="1" as="geometry">
            <mxPoint x="680" y="-90" as="sourcePoint" />
            <mxPoint x="730" y="-140" as="targetPoint" />
          </mxGeometry>
        </mxCell>
        <mxCell id="uUVCNQHS8sP5bxzguqOR-50" value="" style="endArrow=none;html=1;rounded=0;" parent="1" source="uUVCNQHS8sP5bxzguqOR-59" target="uUVCNQHS8sP5bxzguqOR-2" edge="1">
          <mxGeometry width="50" height="50" relative="1" as="geometry">
            <mxPoint x="950" as="sourcePoint" />
            <mxPoint x="870" y="-109" as="targetPoint" />
          </mxGeometry>
        </mxCell>
        <mxCell id="uUVCNQHS8sP5bxzguqOR-51" value="" style="endArrow=none;html=1;rounded=0;" parent="1" source="uUVCNQHS8sP5bxzguqOR-59" target="uUVCNQHS8sP5bxzguqOR-8" edge="1">
          <mxGeometry width="50" height="50" relative="1" as="geometry">
            <mxPoint x="990" y="110" as="sourcePoint" />
            <mxPoint x="880" y="-99" as="targetPoint" />
          </mxGeometry>
        </mxCell>
        <mxCell id="uUVCNQHS8sP5bxzguqOR-52" value="" style="endArrow=none;html=1;rounded=0;" parent="1" source="uUVCNQHS8sP5bxzguqOR-59" target="uUVCNQHS8sP5bxzguqOR-7" edge="1">
          <mxGeometry width="50" height="50" relative="1" as="geometry">
            <mxPoint x="930" y="80" as="sourcePoint" />
            <mxPoint x="760" y="171" as="targetPoint" />
          </mxGeometry>
        </mxCell>
        <mxCell id="uUVCNQHS8sP5bxzguqOR-53" value="" style="endArrow=none;html=1;rounded=0;" parent="1" source="uUVCNQHS8sP5bxzguqOR-59" target="uUVCNQHS8sP5bxzguqOR-6" edge="1">
          <mxGeometry width="50" height="50" relative="1" as="geometry">
            <mxPoint x="910" y="130" as="sourcePoint" />
            <mxPoint x="790" y="210" as="targetPoint" />
          </mxGeometry>
        </mxCell>
        <mxCell id="uUVCNQHS8sP5bxzguqOR-54" value="&amp;lt;include&amp;gt;" style="endArrow=open;endSize=12;dashed=1;html=1;rounded=0;" parent="1" source="uUVCNQHS8sP5bxzguqOR-45" target="uUVCNQHS8sP5bxzguqOR-26" edge="1">
          <mxGeometry x="0.0006" width="160" relative="1" as="geometry">
            <mxPoint x="720" y="90" as="sourcePoint" />
            <mxPoint x="880" y="90" as="targetPoint" />
            <mxPoint as="offset" />
          </mxGeometry>
        </mxCell>
        <mxCell id="uUVCNQHS8sP5bxzguqOR-55" value="&amp;lt;include&amp;gt;" style="endArrow=open;endSize=12;dashed=1;html=1;rounded=0;entryX=1.004;entryY=0.634;entryDx=0;entryDy=0;entryPerimeter=0;" parent="1" source="uUVCNQHS8sP5bxzguqOR-6" target="uUVCNQHS8sP5bxzguqOR-26" edge="1">
          <mxGeometry x="0.0006" width="160" relative="1" as="geometry">
            <mxPoint x="1634.6100000000001" y="-0.004707104643394189" as="sourcePoint" />
            <mxPoint x="1209.997404992459" y="249.5342523652891" as="targetPoint" />
            <mxPoint as="offset" />
          </mxGeometry>
        </mxCell>
        <mxCell id="uUVCNQHS8sP5bxzguqOR-56" value="&amp;lt;include&amp;gt;" style="endArrow=open;endSize=12;dashed=1;html=1;rounded=0;" parent="1" source="uUVCNQHS8sP5bxzguqOR-2" target="uUVCNQHS8sP5bxzguqOR-26" edge="1">
          <mxGeometry x="0.1176" y="454" width="160" relative="1" as="geometry">
            <mxPoint x="850.4999999999998" y="572.068181818182" as="sourcePoint" />
            <mxPoint x="599.9974746830569" y="509.99873734152834" as="targetPoint" />
            <mxPoint x="22" y="27" as="offset" />
            <Array as="points">
              <mxPoint x="670" y="370" />
              <mxPoint x="680" y="430" />
              <mxPoint x="620" y="460" />
              <mxPoint x="480" y="460" />
            </Array>
          </mxGeometry>
        </mxCell>
        <mxCell id="uUVCNQHS8sP5bxzguqOR-73" value="&amp;lt;include&amp;gt;" style="edgeLabel;html=1;align=center;verticalAlign=middle;resizable=0;points=[];" parent="uUVCNQHS8sP5bxzguqOR-56" vertex="1" connectable="0">
          <mxGeometry x="-0.0079" y="2" relative="1" as="geometry">
            <mxPoint as="offset" />
          </mxGeometry>
        </mxCell>
        <mxCell id="uUVCNQHS8sP5bxzguqOR-57" value="&amp;lt;include&amp;gt;" style="endArrow=open;endSize=12;dashed=1;html=1;rounded=0;" parent="1" edge="1">
          <mxGeometry x="0.0006" width="160" relative="1" as="geometry">
            <mxPoint x="1610.71" y="178.9366465673459" as="sourcePoint" />
            <mxPoint x="1209.998981056332" y="149.99586937567918" as="targetPoint" />
            <mxPoint as="offset" />
          </mxGeometry>
        </mxCell>
        <mxCell id="uUVCNQHS8sP5bxzguqOR-58" value="&amp;lt;include&amp;gt;" style="endArrow=open;endSize=12;dashed=1;html=1;rounded=0;entryX=0.002;entryY=0.422;entryDx=0;entryDy=0;entryPerimeter=0;" parent="1" source="uUVCNQHS8sP5bxzguqOR-4" target="uUVCNQHS8sP5bxzguqOR-26" edge="1">
          <mxGeometry x="0.0006" width="160" relative="1" as="geometry">
            <mxPoint x="670" y="31" as="sourcePoint" />
            <mxPoint x="455" y="186" as="targetPoint" />
            <mxPoint as="offset" />
          </mxGeometry>
        </mxCell>
        <mxCell id="uUVCNQHS8sP5bxzguqOR-59" value="Solicita Área interviniente" style="ellipse;whiteSpace=wrap;html=1;" parent="1" vertex="1">
          <mxGeometry x="320" y="190" width="140" height="70" as="geometry" />
        </mxCell>
        <mxCell id="uUVCNQHS8sP5bxzguqOR-60" value="" style="endArrow=none;html=1;rounded=0;" parent="1" source="uUVCNQHS8sP5bxzguqOR-45" target="uUVCNQHS8sP5bxzguqOR-59" edge="1">
          <mxGeometry width="50" height="50" relative="1" as="geometry">
            <mxPoint x="670" y="-15" as="sourcePoint" />
            <mxPoint x="270" y="210" as="targetPoint" />
            <Array as="points" />
          </mxGeometry>
        </mxCell>
        <mxCell id="uUVCNQHS8sP5bxzguqOR-61" value="" style="endArrow=none;html=1;rounded=0;" parent="1" source="uUVCNQHS8sP5bxzguqOR-25" target="uUVCNQHS8sP5bxzguqOR-5" edge="1">
          <mxGeometry width="50" height="50" relative="1" as="geometry">
            <mxPoint x="680" y="-5" as="sourcePoint" />
            <mxPoint x="750" y="-27" as="targetPoint" />
          </mxGeometry>
        </mxCell>
        <mxCell id="uUVCNQHS8sP5bxzguqOR-64" value="&amp;lt;include&amp;gt;" style="endArrow=open;endSize=12;dashed=1;html=1;rounded=0;" parent="1" edge="1">
          <mxGeometry x="0.0006" width="160" relative="1" as="geometry">
            <mxPoint x="1723.9399999999996" y="70" as="sourcePoint" />
            <mxPoint x="1265.9953446938857" y="159.45496514287993" as="targetPoint" />
            <mxPoint as="offset" />
            <Array as="points">
              <mxPoint x="1753.69" y="240" />
              <mxPoint x="1643.69" y="290" />
              <mxPoint x="1533.69" y="320" />
              <mxPoint x="1323.69" y="320" />
            </Array>
          </mxGeometry>
        </mxCell>
        <mxCell id="uUVCNQHS8sP5bxzguqOR-66" value="&amp;lt;include&amp;gt;" style="endArrow=open;endSize=12;dashed=1;html=1;rounded=0;entryX=0.805;entryY=0.969;entryDx=0;entryDy=0;entryPerimeter=0;" parent="1" edge="1">
          <mxGeometry x="0.0006" width="160" relative="1" as="geometry">
            <mxPoint x="1592.7999999999995" y="192.17000000000002" as="sourcePoint" />
            <mxPoint x="1210" y="169.99999999999994" as="targetPoint" />
            <mxPoint as="offset" />
            <Array as="points">
              <mxPoint x="1617.3" y="262.17" />
              <mxPoint x="1417.3" y="312.17" />
              <mxPoint x="1257.3" y="322.17" />
            </Array>
          </mxGeometry>
        </mxCell>
        <mxCell id="uUVCNQHS8sP5bxzguqOR-67" value="" style="endArrow=block;dashed=1;endFill=0;endSize=12;html=1;rounded=0;" parent="1" edge="1">
          <mxGeometry width="160" relative="1" as="geometry">
            <mxPoint x="1410" y="70" as="sourcePoint" />
            <mxPoint x="1570" y="70" as="targetPoint" />
          </mxGeometry>
        </mxCell>
      </root>
    </mxGraphModel>
  </diagram>
</mxfile>
